<!-- Exported by Character Map UWP -->
<svg height="100%" viewBox="64 7 832 1017" width="100%" xmlns="http://www.w3.org/2000/svg" xmlns:xlink="http://www.w3.org/1999/xlink">
  <path d="M896,55L896,803.5C896,825.167 891.667,845.5 883,864.5C874.333,883.5 862.667,900.083 848,914.25C833.333,928.417 816.333,939.583 797,947.75C777.667,955.917 757.333,960 736,960C713.667,960 692.833,955.833 673.5,947.5C654.167,939.167 637.25,927.75 622.75,913.25C608.25,898.75 596.833,881.833 588.5,862.5C580.167,843.167 576,822.333 576,800C576,778.667 580.083,758.333 588.25,739C596.417,719.667 607.583,702.667 621.75,688C635.917,673.333 652.5,661.667 671.5,653C690.5,644.333 710.833,640 732.5,640C750.5,640 768,642.583 785,647.75C802,652.917 817.667,661 832,672L832,302L384,470L384,867.5C384,889.167 379.667,909.5 371,928.5C362.333,947.5 350.667,964.083 336,978.25C321.333,992.417 304.333,1003.58 285,1011.75C265.667,1019.92 245.333,1024 224,1024C201.667,1024 180.833,1019.83 161.5,1011.5C142.167,1003.17 125.25,991.75 110.75,977.25C96.25,962.75 84.8333,945.833 76.5,926.5C68.1667,907.167 64,886.333 64,864C64,842.667 68.0833,822.333 76.25,803C84.4167,783.667 95.5833,766.667 109.75,752C123.917,737.333 140.5,725.667 159.5,717C178.5,708.333 198.833,704 220.5,704C238.5,704 255.917,706.583 272.75,711.75C289.583,716.917 305.167,724.833 319.5,735.5L317.5,235.5C317.5,225.833 320.417,216.75 326.25,208.25C332.083,199.75 339.667,193.667 349,190L831.5,10C836.5,8.00006 842,7.00006 848,7C861.333,7.00006 872.667,11.6667 882,21C891.333,30.3334 896,41.6667 896,55ZM382,246L382,402L832,234L832,78ZM832,800C832,787 829.5,774.667 824.5,763C819.5,751.333 812.583,741.083 803.75,732.25C794.917,723.417 784.667,716.5 773,711.5C761.333,706.5 749,704 736,704C723,704 710.667,706.5 699,711.5C687.333,716.5 677.083,723.417 668.25,732.25C659.417,741.083 652.5,751.333 647.5,763C642.5,774.667 640,787 640,800C640,813 642.5,825.333 647.5,837C652.5,848.667 659.417,858.917 668.25,867.75C677.083,876.583 687.333,883.5 699,888.5C710.667,893.5 723,896 736,896C749,896 761.333,893.5 773,888.5C784.667,883.5 794.917,876.583 803.75,867.75C812.583,858.917 819.5,848.667 824.5,837C829.5,825.333 832,813 832,800ZM320,863.5C320,850.5 317.5,838.167 312.5,826.5C307.5,814.833 300.583,804.667 291.75,796C282.917,787.333 272.667,780.5 261,775.5C249.333,770.5 237,768 224,768C211,768 198.667,770.5 187,775.5C175.333,780.5 165.083,787.417 156.25,796.25C147.417,805.083 140.5,815.333 135.5,827C130.5,838.667 128,851 128,864C128,877 130.5,889.333 135.5,901C140.5,912.667 147.417,922.917 156.25,931.75C165.083,940.583 175.333,947.5 187,952.5C198.667,957.5 211,960 224,960C237.333,960 249.833,957.417 261.5,952.25C273.167,947.083 283.333,940.167 292,931.5C300.667,922.833 307.5,912.583 312.5,900.75C317.5,888.917 320,876.5 320,863.5Z" fill="#000000" fill-opacity="1">
  </path>
</svg>