<!-- Exported by Character Map UWP -->
<svg height="100%" viewBox="64 1 896 959" width="100%" xmlns="http://www.w3.org/2000/svg" xmlns:xlink="http://www.w3.org/1999/xlink">
  <path d="M192,960C174.333,960 157.75,956.667 142.25,950C126.75,943.333 113.167,934.167 101.5,922.5C89.8333,910.833 80.6667,897.25 74,881.75C67.3333,866.25 64,849.667 64,832L64,442.5C64,429.833 66.5,417.5 71.5,405.5C76.5,393.5 83.3333,383.167 92,374.5L433,34C443.667,23.3334 455.75,15.1667 469.25,9.5C482.75,3.83337 497,1.00006 512,1C527,1.00006 541.25,3.83337 554.75,9.5C568.25,15.1667 580.333,23.3334 591,34L932,374.5C940.667,383.167 947.5,393.5 952.5,405.5C957.5,417.5 960,429.833 960,442.5L960,832C960,849.667 956.667,866.25 950,881.75C943.333,897.25 934.167,910.833 922.5,922.5C910.833,934.167 897.25,943.333 881.75,950C866.25,956.667 849.667,960 832,960L640,960C631,960 622.583,958.333 614.75,955C606.917,951.667 600.167,947.167 594.5,941.5C588.833,935.833 584.333,929.083 581,921.25C577.667,913.417 576,905 576,896L576,640L448,640L448,896C448,905 446.333,913.333 443,921C439.667,928.667 435.083,935.417 429.25,941.25C423.417,947.083 416.667,951.667 409,955C401.333,958.333 393,960 384,960ZM384,896L384,640C384,631 385.667,622.667 389,615C392.333,607.333 396.917,600.583 402.75,594.75C408.583,588.917 415.333,584.333 423,581C430.667,577.667 439,576 448,576L576,576C584.667,576 592.917,577.667 600.75,581C608.583,584.333 615.417,588.917 621.25,594.75C627.083,600.583 631.667,607.417 635,615.25C638.333,623.083 640,631.333 640,640L640,896L832,896C841,896 849.333,894.333 857,891C864.667,887.667 871.417,883.083 877.25,877.25C883.083,871.417 887.667,864.667 891,857C894.333,849.333 896,841 896,832L896,442.5C896,433.833 892.833,426.333 886.5,420L546,79C536.667,69.6667 525.333,65 512,65C498.667,65 487.333,69.6667 478,79L137.5,420C131.167,426.333 128,433.833 128,442.5L128,832C128,841 129.667,849.417 133,857.25C136.333,865.083 140.833,871.833 146.5,877.5C152.167,883.167 158.917,887.667 166.75,891C174.583,894.333 183,896 192,896Z" fill="#000000" fill-opacity="1">
  </path>
</svg>