<!-- Exported by Character Map UWP -->
<svg height="100%" viewBox="28 0 968 1024" width="100%" xmlns="http://www.w3.org/2000/svg" xmlns:xlink="http://www.w3.org/1999/xlink">
  <path d="M300.5,818.5C288.833,818.5 277.333,820.667 266,825C254.667,829.333 243.417,834 232.25,839C221.083,844 209.833,848.667 198.5,853C187.167,857.333 175.667,859.5 164,859.5C154,859.5 144.833,857.417 136.5,853.25C128.167,849.083 120.667,843.167 114,835.5C109.667,830.5 104.583,823.833 98.75,815.5C92.9167,807.167 86.8333,798 80.5,788C74.1667,778 67.8333,767.417 61.5,756.25C55.1667,745.083 49.5833,734.25 44.75,723.75C39.9167,713.25 36,703.333 33,694C30,684.667 28.5,676.833 28.5,670.5C28.5,658.5 31.5,647.75 37.5,638.25C43.5,628.75 50.9167,620.083 59.75,612.25C68.5833,604.417 78.25,597 88.75,590C99.25,583 108.917,575.583 117.75,567.75C126.583,559.917 134,551.583 140,542.75C146,533.917 149,523.667 149,512C149,500.667 146,490.5 140,481.5C134,472.5 126.5,464.083 117.5,456.25C108.5,448.417 98.8333,440.833 88.5,433.5C78.1667,426.167 68.5,418.417 59.5,410.25C50.5,402.083 43,393.333 37,384C31,374.667 28,364 28,352C28,346 29.5833,338.333 32.75,329C35.9167,319.667 40,309.667 45,299C50,288.333 55.75,277.417 62.25,266.25C68.75,255.083 75.25,244.417 81.75,234.25C88.25,224.083 94.5,214.833 100.5,206.5C106.5,198.167 111.667,191.667 116,187C122.667,179.667 130.25,174 138.75,170C147.25,166 156.333,164 166,164C177.667,164 189,166.167 200,170.5C211,174.833 222,179.583 233,184.75C244,189.917 255.083,194.667 266.25,199C277.417,203.333 288.833,205.5 300.5,205.5C315.5,205.5 328.417,200.917 339.25,191.75C350.083,182.583 356.833,170.667 359.5,156C362.5,139.667 365.5,123.333 368.5,107C371.5,90.6667 374.5,74.3334 377.5,58C380.167,44.0001 386.25,32.5001 395.75,23.5C405.25,14.5001 417,8.66675 431,6C444.333,3.66675 457.833,2.08337 471.5,1.25C485.167,0.416687 498.667,0 512,0C526,0 540,0.5 554,1.5C568,2.5 581.833,4.33337 595.5,7C609.5,9.66669 621,15.5 630,24.5C639,33.5 644.833,45 647.5,59C650.5,75.3334 653.333,91.5001 656,107.5C658.667,123.5 661.5,139.667 664.5,156C667.167,170.333 674,182.167 685,191.5C696,200.833 708.833,205.5 723.5,205.5C735.167,205.5 746.667,203.333 758,199C769.333,194.667 780.583,190 791.75,185C802.917,180 814.167,175.333 825.5,171C836.833,166.667 848.333,164.5 860,164.5C870.333,164.5 879.583,166.583 887.75,170.75C895.917,174.917 903.333,180.833 910,188.5C914.333,193.5 919.417,200.167 925.25,208.5C931.083,216.833 937.167,226 943.5,236C949.833,246 956.167,256.583 962.5,267.75C968.833,278.917 974.417,289.75 979.25,300.25C984.083,310.75 988,320.667 991,330C994,339.333 995.5,347.167 995.5,353.5C995.5,365.833 992.5,376.667 986.5,386C980.5,395.333 973.083,403.917 964.25,411.75C955.417,419.583 945.75,427 935.25,434C924.75,441 915.083,448.417 906.25,456.25C897.417,464.083 890,472.417 884,481.25C878,490.083 875,500.333 875,512C875,523.333 878,533.5 884,542.5C890,551.5 897.5,559.917 906.5,567.75C915.5,575.583 925.167,583.167 935.5,590.5C945.833,597.833 955.5,605.583 964.5,613.75C973.5,621.917 981,630.667 987,640C993,649.333 996,660 996,672C996,678.667 994.417,686.583 991.25,695.75C988.083,704.917 984,714.833 979,725.5C974,736.167 968.25,747 961.75,758C955.25,769 948.75,779.5 942.25,789.5C935.75,799.5 929.417,808.667 923.25,817C917.083,825.333 911.833,832 907.5,837C900.833,844.333 893.417,850 885.25,854C877.083,858 868.167,860 858.5,860C847.5,860 836.25,857.833 824.75,853.5C813.25,849.167 801.833,844.417 790.5,839.25C779.167,834.083 767.833,829.333 756.5,825C745.167,820.667 734.167,818.5 723.5,818.5C708.833,818.5 697.5,821.5 689.5,827.5C681.5,833.5 675.333,841.25 671,850.75C666.667,860.25 663.583,870.75 661.75,882.25C659.917,893.75 658,904.833 656,915.5C654.333,924.167 652.75,932.583 651.25,940.75C649.75,948.917 648.167,957.333 646.5,966C643.833,980.333 637.833,991.917 628.5,1000.75C619.167,1009.58 607.333,1015.33 593,1018C579.667,1020.33 566.25,1021.92 552.75,1022.75C539.25,1023.58 525.667,1024 512,1024C498,1024 484,1023.5 470,1022.5C456,1021.5 442.167,1019.67 428.5,1017C414.5,1014.33 403,1008.42 394,999.25C385,990.083 379.167,978.5 376.5,964.5C373.5,948.5 370.667,932.417 368,916.25C365.333,900.083 362.5,884 359.5,868C356.833,853.667 350,841.833 339,832.5C328,823.167 315.167,818.5 300.5,818.5ZM583.5,955C584.833,947.667 586.333,938.583 588,927.75C589.667,916.917 591.5,905.833 593.5,894.5C595.5,883.167 597.667,872.333 600,862C602.333,851.667 604.667,843.333 607,837C616.333,812 631.333,792 652,777C672.667,762 696.5,754.5 723.5,754.5C732.5,754.5 742.917,756.083 754.75,759.25C766.583,762.417 778.75,766.167 791.25,770.5C803.75,774.833 815.833,779.333 827.5,784C839.167,788.667 849.5,792.667 858.5,796C874.167,777.333 888,757.583 900,736.75C912,715.917 922.5,694.333 931.5,672L931.5,671.5L855,606.5C841,594.833 830.167,580.75 822.5,564.25C814.833,547.75 811,530.333 811,512C811,493.667 814.917,476.167 822.75,459.5C830.583,442.833 841.5,428.667 855.5,417L931,354L931,353.5C931,353.167 930.333,351.25 929,347.75C927.667,344.25 926.833,342.333 926.5,342C918.5,321.333 908.917,301.583 897.75,282.75C886.583,263.917 874,245.833 860,228.5L859.5,228.5L765.5,262.5C752.167,267.167 738.5,269.5 724.5,269.5C701.833,269.5 681,264 662,253C646,244 632.75,232 622.25,217C611.75,202 604.833,185.5 601.5,167.5L584.5,70C560.5,66.0001 536.333,64.0001 512,64C500,64.0001 488,64.4167 476,65.25C464,66.0834 452.167,67.3334 440.5,69C437.5,85.6667 434.667,102.167 432,118.5C429.333,134.833 426.167,151.167 422.5,167.5C419.5,182.167 414.333,195.75 407,208.25C399.667,220.75 390.667,231.5 380,240.5C369.333,249.5 357.333,256.583 344,261.75C330.667,266.917 316.333,269.5 301,269.5C286,269.5 271.833,267 258.5,262L258,262L166,228L165.5,228C150.167,247 136.333,266.75 124,287.25C111.667,307.75 101.167,329.333 92.5,352L92.5,352.5L169,417.5C183,429.167 193.833,443.25 201.5,459.75C209.167,476.25 213,493.667 213,512C213,530.333 209.083,547.833 201.25,564.5C193.417,581.167 182.5,595.333 168.5,607L93,670L93,670.5C93,670.833 93.6667,672.75 95,676.25C96.3333,679.75 97.1667,681.667 97.5,682C105.5,702.667 115.083,722.417 126.25,741.25C137.417,760.083 150,778.167 164,795.5L164.5,795.5L258.5,761.5C271.833,756.833 285.5,754.5 299.5,754.5C322.167,754.5 343,760 362,771C378,780 391.25,792 401.75,807C412.25,822 419.167,838.5 422.5,856.5L439.5,954C463.5,958 487.667,960 512,960C524,960 536,959.583 548,958.75C560,957.917 571.833,956.667 583.5,955ZM320,512C320,485.333 325,460.333 335,437C345,413.667 358.667,393.333 376,376C393.333,358.667 413.667,345 437,335C460.333,325 485.333,320 512,320C538.667,320 563.667,325 587,335C610.333,345 630.667,358.667 648,376C665.333,393.333 679,413.667 689,437C699,460.333 704,485.333 704,512C704,538.667 699,563.667 689,587C679,610.333 665.333,630.667 648,648C630.667,665.333 610.333,679 587,689C563.667,699 538.667,704 512,704C485.333,704 460.333,699 437,689C413.667,679 393.333,665.333 376,648C358.667,630.667 345,610.333 335,587C325,563.667 320,538.667 320,512ZM640,512C640,494.333 636.667,477.75 630,462.25C623.333,446.75 614.167,433.167 602.5,421.5C590.833,409.833 577.25,400.667 561.75,394C546.25,387.333 529.667,384 512,384C494.333,384 477.75,387.333 462.25,394C446.75,400.667 433.167,409.833 421.5,421.5C409.833,433.167 400.667,446.75 394,462.25C387.333,477.75 384,494.333 384,512C384,529.667 387.333,546.25 394,561.75C400.667,577.25 409.833,590.833 421.5,602.5C433.167,614.167 446.75,623.333 462.25,630C477.75,636.667 494.333,640 512,640C529.667,640 546.25,636.667 561.75,630C577.25,623.333 590.833,614.167 602.5,602.5C614.167,590.833 623.333,577.25 630,561.75C636.667,546.25 640,529.667 640,512Z" fill="#FFFFFF" fill-opacity="1">
  </path>
</svg>